<svg width="256" height="80" viewBox="0 0 256 80" fill="none" xmlns="http://www.w3.org/2000/svg">
<path fill-rule="evenodd" clip-rule="evenodd" d="M37.8483 33.2129C37.6236 34.7998 34.4317 57.1193 34.1182 59.2024H41.2789C41.5082 57.6248 44.7048 35.296 44.9996 33.2129H37.8483Z" fill="#00427A"/>
<path fill-rule="evenodd" clip-rule="evenodd" d="M96.4058 33.2129C96.1858 34.7998 92.9893 57.1193 92.6851 59.2024H109.463C109.618 58.0602 110.053 55.0455 110.259 53.5944H100.094L100.782 48.7869H110.006C110.17 47.6775 110.549 44.9718 110.76 43.5581H101.54L102.209 38.8255H112.103C112.271 37.6833 112.697 34.6687 112.913 33.2129H96.4011H96.4058Z" fill="#00427A"/>
<path fill-rule="evenodd" clip-rule="evenodd" d="M16.7127 48.0988C16.7127 48.0988 22.6892 34.4113 23.1619 33.2129H32.1665C32.1852 35.0338 30.9824 57.358 30.9824 59.2024H24.5098L25.5769 41.0022C25.5769 41.0022 18.2899 58.0414 17.7938 59.2024H12.6738L10.3758 41.0022C10.2027 41.8214 7.78304 53.9829 6.45389 59.2024H0C0.673938 56.8805 5.60679 34.5517 6.0046 33.2129H14.6815L16.7127 48.0988Z" fill="#00427A"/>
<path fill-rule="evenodd" clip-rule="evenodd" d="M77.704 48.5809L81.8038 38.9285L83.147 48.5809H77.704ZM83.821 53.9408C83.821 53.9408 84.2843 58.1819 84.4528 59.2024H91.3092C90.9347 57.0631 87.186 34.7296 86.9098 33.2129H78.2329C77.7274 34.2989 67.8149 56.6465 66.6309 59.2024H73.6042C73.988 58.3317 75.7431 53.9502 75.7431 53.9502L83.8256 53.9408H83.821Z" fill="#00427A"/>
<path fill-rule="evenodd" clip-rule="evenodd" d="M59.1659 59.2012H66.1065L60.8648 48.2474C64.0426 47.6529 66.523 46.712 67.1595 41.7828C67.2297 41.1555 67.2953 40.5704 67.2953 40.018C67.2953 38.1877 66.8085 36.7085 65.8585 35.6178C64.1455 33.6377 61.1783 33.207 58.9927 33.207H49.1785C48.9492 34.7939 45.748 57.1181 45.4531 59.1965H51.9679C52.0895 58.3773 52.9741 52.1842 53.7744 46.5669L59.1659 59.1965V59.2012ZM54.9819 38.0894H56.5778C57.6729 38.0894 58.8851 38.2064 59.6386 39.0865C60.1721 39.6997 60.3687 40.5751 60.2095 41.6892C60.2095 41.6892 59.9943 43.674 58.6885 44.2966C58.6885 44.2966 57.7806 44.8864 56.3063 44.9238H54.0131L54.9865 38.0847L54.9819 38.0894Z" fill="#00427A"/>
<path fill-rule="evenodd" clip-rule="evenodd" d="M255.502 0C251.318 17.2967 236.342 26.715 227.543 31.7472L227.15 31.2417C230.763 28.2973 243.17 19.1551 247.129 3.98362L255.507 0L255.502 0Z" fill="#F58220"/>
<path fill-rule="evenodd" clip-rule="evenodd" d="M195.442 43.5585H195.456L195.849 43.4648L195.442 43.5585Z" fill="#00427A"/>
<path fill-rule="evenodd" clip-rule="evenodd" d="M140.02 47.9072H140.076L140.02 47.9023V47.9072Z" fill="#00427A"/>
<path fill-rule="evenodd" clip-rule="evenodd" d="M162.176 47.9863V47.9912L162.204 47.9863H162.176Z" fill="#00427A"/>
<path fill-rule="evenodd" clip-rule="evenodd" d="M170.23 47.4384H170.286V47.4336L170.23 47.4384Z" fill="#00427A"/>
<path fill-rule="evenodd" clip-rule="evenodd" d="M206.885 33.2168C206.712 34.2981 206.22 37.7247 205.977 39.3959C211.022 37.9868 217.125 35.9552 222.784 33.2168H206.885Z" fill="#00427A"/>
<path fill-rule="evenodd" clip-rule="evenodd" d="M159.803 44.7466C159.176 44.2645 158.45 43.8338 157.594 43.4359L155.708 42.4997L155.694 42.4903L155.656 42.4716C155.043 42.1252 153.616 41.292 153.616 39.9017C153.625 39.2323 153.883 38.6425 154.374 38.2305C154.959 37.739 155.867 37.5565 156.836 37.725C158.071 37.9263 159.489 38.7221 161.034 40.0515C161.759 38.6378 163.173 35.9321 163.669 34.9725C161.904 33.4979 160.177 32.7162 157.608 32.2528C154.435 31.7987 151.374 32.4634 149.226 34.0971C147.41 35.4781 146.287 37.5143 145.982 39.9719C145.94 40.3885 145.912 40.7911 145.912 41.1843C145.912 42.3265 146.118 43.347 146.525 44.227L146.975 44.2692C150.232 44.5126 154.688 44.7092 159.803 44.7513V44.7466Z" fill="#00427A"/>
<path fill-rule="evenodd" clip-rule="evenodd" d="M193.631 38.8244H203.53C203.703 37.6822 204.133 34.6675 204.335 33.207H187.828C187.739 33.8858 187.102 38.3047 186.381 43.3322C188.665 43.0514 190.926 42.7143 193.144 42.3118L193.636 38.8244H193.631Z" fill="#00427A"/>
<path fill-rule="evenodd" clip-rule="evenodd" d="M209.529 39.6873H209.534C208.818 39.926 208.05 40.1647 207.273 40.4081L206.904 40.5158C206.576 40.6188 206.253 40.7171 205.921 40.8107L205.514 40.9277C204.437 41.2507 203.347 41.5644 202.2 41.8733L201.653 42.0184C201.325 42.1074 200.997 42.1963 200.674 42.2806L200.033 42.4444C199.706 42.524 199.378 42.6129 199.065 42.7019L198.344 42.8704C197.796 43.0108 197.249 43.1466 196.692 43.273C196.411 43.3385 196.125 43.4087 195.849 43.4696L195.451 43.5632C192.508 44.2232 189.381 44.8505 186.082 45.4216L185.895 45.4497C185.272 45.5574 184.65 45.6603 184.023 45.7586L183.611 45.8195C182.96 45.9225 182.314 46.0208 181.645 46.1238L181.509 46.1425C177.957 46.6621 174.218 47.1021 170.286 47.4345L170.23 47.4438C169.636 47.5 169.023 47.5515 168.424 47.5983L168.246 47.6124C167.628 47.6685 167.015 47.706 166.383 47.7481L166.248 47.7575C165.616 47.7996 164.96 47.8417 164.31 47.8839H164.226C163.566 47.926 162.897 47.9541 162.223 47.9915H162.185C158.876 48.1413 155.455 48.2396 151.931 48.2396H151.692C150.887 48.2349 150.082 48.2303 149.277 48.2162H148.837C145.983 48.1741 143.062 48.0805 140.076 47.9166H140.043L140.029 47.9073C135.513 47.6732 130.852 47.2987 126.031 46.751L131.577 41.541C131.577 41.541 134.806 42.5053 139.253 43.2964C138.41 38.2876 137.657 33.864 137.549 33.2227H128.844C128.357 34.3087 118.445 56.6562 117.27 59.2074H124.239C124.608 58.3414 126.949 52.7569 126.949 52.7569H134.217C134.217 52.7569 134.919 58.187 135.083 59.2074H141.948C141.789 58.3742 141.134 54.4514 140.357 49.9014C145.252 50.1682 150.162 50.2244 154.725 50.1589C154.954 50.5474 155.085 50.964 155.085 51.4134L155.048 51.8862C154.936 52.462 154.636 52.9441 154.159 53.2812C153.204 53.9412 151.861 53.8055 150.92 53.6416C148.702 53.2484 146.947 51.5726 145.524 50.1729C144.625 51.6334 142.767 54.6715 142.159 55.6685C144.775 58.0512 147.607 59.5024 150.592 59.9143C153.621 60.3777 156.63 59.6896 158.844 58.0606C160.795 56.6188 162.021 54.5263 162.386 51.9986C162.513 51.2777 162.555 50.5895 162.527 49.9342C167.413 49.7282 171.494 49.4239 174.11 49.2039C174.957 49.8218 175.402 50.5568 175.402 51.4181L175.35 51.8909C175.261 52.4667 174.948 52.9488 174.485 53.2859C173.534 53.9459 172.173 53.8101 171.241 53.6463C169.028 53.2531 167.277 51.5773 165.85 50.1776C164.956 51.6381 163.088 54.6761 162.48 55.6732C165.096 58.0559 167.928 59.507 170.923 59.919C173.956 60.3824 176.956 59.6943 179.165 58.0653C181.107 56.6235 182.338 54.531 182.717 52.0032C182.946 50.5989 182.89 49.335 182.558 48.2069C183.672 48.0383 184.734 47.8839 185.754 47.7107C184.973 53.1641 184.247 58.2665 184.112 59.2121H200.89C201.049 58.0746 201.479 55.06 201.681 53.6042H191.515L192.217 48.8014H201.433C201.573 47.8043 201.905 45.5339 202.116 44.0547C203.38 43.6568 204.002 43.4181 204.002 43.4181C204.002 43.4181 207.124 42.4725 211.167 40.9839C210.578 45.0612 208.799 57.4895 208.556 59.2168H215.819C216.039 57.6814 218.618 39.7013 218.618 39.7013H223.874C224.033 38.5778 224.538 35.0108 224.768 33.3912C222.044 34.9079 216.9 37.2765 209.539 39.7013L209.529 39.6873Z" fill="#00427A"/>
<path fill-rule="evenodd" clip-rule="evenodd" d="M177.924 43.4358L176.024 42.4996L176.005 42.4808L175.973 42.4668C175.364 42.1157 173.946 41.2872 173.946 39.8922C173.946 39.2228 174.208 38.633 174.69 38.2304C175.285 37.7295 176.193 37.547 177.157 37.7202C178.388 37.9214 179.806 38.7219 181.35 40.0467C182.094 38.633 183.494 35.9226 183.999 34.9677C182.221 33.4884 180.498 32.7067 177.929 32.2573C174.756 31.7892 171.686 32.4586 169.547 34.097C167.726 35.4779 166.603 37.5095 166.303 39.9671C166.252 40.3837 166.229 40.7863 166.229 41.1795C166.229 42.537 166.519 43.7073 167.085 44.6903C170.946 44.6061 175.027 44.4048 179.127 44.0771C178.757 43.8524 178.341 43.6324 177.915 43.4358H177.924Z" fill="#00427A"/>
<path fill-rule="evenodd" clip-rule="evenodd" d="M0.215332 78.1368L1.15137 77.0648C2.05465 78.0198 3.30895 78.6143 4.60537 78.6143C6.23876 78.6143 7.22628 77.7951 7.22628 76.5686C7.22628 75.3422 6.323 74.9022 5.14827 74.3592L3.34639 73.5774C2.20442 73.0812 0.814399 72.2152 0.814399 70.3802C0.814399 68.4516 2.48055 67.0566 4.74577 67.0566C6.23876 67.0566 7.53518 67.6511 8.41974 68.6061L7.58666 69.6125C6.81911 68.8776 5.90179 68.4376 4.74577 68.4376C3.31363 68.4376 2.41503 69.121 2.41503 70.2772C2.41503 71.5037 3.50084 71.9484 4.47432 72.3556L6.26216 73.1233C7.70835 73.7553 8.8316 74.6026 8.8316 76.4563C8.8316 78.4317 7.1982 79.9999 4.59133 79.9999C2.82221 79.9999 1.30582 79.3024 0.220012 78.1415L0.215332 78.1368Z" fill="#00427A"/>
<path fill-rule="evenodd" clip-rule="evenodd" d="M16.9328 74.4057C16.9328 72.4818 16.081 71.5315 14.6348 71.5315C13.3243 71.5315 12.1683 72.5848 11.9811 74.4057H16.9328ZM10.4507 75.1547C10.4507 72.1588 12.4772 70.291 14.6207 70.291C16.9702 70.291 18.2947 71.9902 18.2947 74.6304C18.2947 74.9721 18.276 75.2951 18.2292 75.5151H11.9998C12.1168 77.5046 13.2916 78.7498 15.0654 78.7498C15.9686 78.7498 16.6988 78.4783 17.3774 78.0195L17.939 79.04C17.1247 79.569 16.1699 79.9949 14.8782 79.9949C12.4257 79.9949 10.4507 78.2255 10.4507 75.1594V75.1547Z" fill="#00427A"/>
<path fill-rule="evenodd" clip-rule="evenodd" d="M20.583 66.2188H22.1134V75.4124H22.1462L26.1103 70.5254H27.8327L24.7344 74.2375L28.2398 79.7658H26.555L23.8498 75.3094L22.1134 77.3364V79.7658H20.583V66.2188Z" fill="#00427A"/>
<path fill-rule="evenodd" clip-rule="evenodd" d="M29.8638 76.3822V70.5262H31.4129V76.1903C31.4129 77.9083 31.9231 78.6385 33.1493 78.6385C34.0994 78.6385 34.7639 78.1798 35.6485 77.075V70.5215H37.1977V79.762H35.9012L35.7842 78.3155H35.7328C34.8669 79.3173 33.9496 79.982 32.6719 79.982C30.6828 79.982 29.8638 78.7743 29.8638 76.3729V76.3822Z" fill="#00427A"/>
<path fill-rule="evenodd" clip-rule="evenodd" d="M40.3193 70.5251H41.597L41.7328 72.2149H41.7842C42.4488 71.04 43.3661 70.291 44.4052 70.291C44.8123 70.291 45.1025 70.3378 45.3927 70.4923L45.1025 71.8592C44.7796 71.7375 44.5924 71.7047 44.1992 71.7047C43.4504 71.7047 42.4629 72.2524 41.8685 73.8346V79.7749H40.3193V70.5344V70.5251Z" fill="#00427A"/>
<path fill-rule="evenodd" clip-rule="evenodd" d="M48.2051 68.6205H46.6559V67.0195H48.2051V68.6205ZM46.6372 70.5257H48.1864V79.7662H46.6372V70.5257Z" fill="#00427A"/>
<path fill-rule="evenodd" clip-rule="evenodd" d="M51.3037 76.9104V71.7846H49.9277V70.6096L51.3739 70.5254L51.5611 67.9414H52.8575V70.5254H55.3568V71.7846H52.8575V76.9432C52.8575 78.0994 53.1992 78.7267 54.285 78.7267C54.6079 78.7267 55.0198 78.6096 55.3427 78.4926L55.6516 79.6488C55.1228 79.8361 54.5097 79.9859 53.948 79.9859C51.9777 79.9859 51.3084 78.7641 51.3084 76.9057L51.3037 76.9104Z" fill="#00427A"/>
<path fill-rule="evenodd" clip-rule="evenodd" d="M62.5546 77.6731V74.9347C59.2691 75.1547 58.3846 75.7492 58.3846 77.1816C58.3846 78.2676 59.0491 78.7451 59.9992 78.7451C60.9025 78.7451 61.6513 78.4736 62.5546 77.6684V77.6731ZM56.8682 77.2846C56.8682 74.9019 58.8947 73.961 62.5546 73.9142C62.5546 72.7252 62.1662 71.583 60.6498 71.583C59.5593 71.583 58.5203 71.9949 57.7902 72.4865L57.1771 71.3817C58.0429 70.834 59.4048 70.291 60.9025 70.291C63.149 70.291 64.1038 71.8264 64.1038 74.0874V79.7702H62.8261L62.6903 78.7825H62.6389C61.7543 79.5128 60.7153 79.9903 59.5593 79.9903C58.0101 79.9903 56.8682 78.9698 56.8682 77.2846Z" fill="#00427A"/>
<path fill-rule="evenodd" clip-rule="evenodd" d="M66.0181 78.7131L66.7856 77.6926C67.5859 78.3573 68.419 78.7833 69.5235 78.7833C70.7498 78.7833 71.3441 78.1373 71.3441 77.3368C71.3441 76.4053 70.2583 75.9934 69.2334 75.5814C67.9416 75.1227 66.4767 74.458 66.4767 72.9085C66.4767 71.4621 67.6515 70.2871 69.6593 70.2871C70.82 70.2871 71.8075 70.7646 72.5376 71.3216L71.7888 72.3281C71.1242 71.8506 70.497 71.5089 69.6593 71.5089C68.5033 71.5089 67.9744 72.1034 67.9744 72.8336C67.9744 73.723 68.9806 74.0273 70.0196 74.4346C71.3629 74.9308 72.8465 75.5065 72.8465 77.2432C72.8465 78.7459 71.653 79.9817 69.4767 79.9817C68.1663 79.9817 66.9073 79.4387 66.0228 78.7037L66.0181 78.7131Z" fill="#00427A"/>
</svg>
